<?xml version="1.0" standalone="no"?>
<!DOCTYPE svg PUBLIC "-//W3C//DTD SVG 20010904//EN"
 "http://www.w3.org/TR/2001/REC-SVG-20010904/DTD/svg10.dtd">
<svg version="1.0" xmlns="http://www.w3.org/2000/svg"
 width="192.000000pt" height="192.000000pt" viewBox="0 0 192.000000 192.000000"
 preserveAspectRatio="xMidYMid meet">
<metadata>
Created by potrace 1.14, written by Peter Selinger 2001-2017
</metadata>
<g transform="translate(0.000000,192.000000) scale(0.100000,-0.100000)"
fill="#000000" stroke="none">
<path d="M669 1916 c-2 -2 -38 -6 -79 -9 -193 -14 -363 -77 -437 -161 -79 -90
-121 -215 -140 -421 -10 -101 -10 -649 -1 -735 23 -209 66 -336 141 -419 78
-84 225 -138 433 -158 137 -14 699 -9 803 6 160 23 271 62 343 121 69 57 138
191 154 298 3 20 7 42 9 49 19 56 28 683 13 838 -21 209 -65 340 -141 424 -72
78 -199 128 -402 157 -43 6 -690 15 -696 10z"/>
</g>
</svg>
